# xmcd
#
# Track frame offsets:
#	150
#	15713
#	31383
#	47366
#	62684
#	78473
#	93079
#	109633
#	125360
#	139932
#	154087
#	168982
#	185630
#	199407
#	213520
#	228975
#	241129
#	254930
#	268825
#	296016
#
# Disc length: 4095 seconds
#
# Revision: 1
# Processed by: cddbd v1.5.2PL0 Copyright (c) Steve Scherf et al.
# Submitted via: audiograbber 1.83.01
#
DISCID=210ffd14
DTITLE=STELIOS KAZANTZIDIS - LAIKO TRAGOUDI cd13
DYEAR=1900
DGENRE=Laika
TTITLE0=Kapote kapoia mera
TTITLE1=Ego kalos gennithika
TTITLE2=Mia palia istoria
TTITLE3=Kathenas me ton pono tou
TTITLE4=Hrthes ta glikoxaramata
TTITLE5=An ksanarxosoun
TTITLE6=Enas skilos kai mia ginaika
TTITLE7=S' auton ton pseuti ton ntounia
TTITLE8=Mana glikia
TTITLE9=Ki an kseniteutikes
TTITLE10=Klapse kardia mou orfani
TTITLE11=Sto adeio proskefali
TTITLE12=Anthrope adike giati
TTITLE13=Katastrofes kai basana
TTITLE14=Prin mou figeis glikia mou
TTITLE15=Petra tha rikso piso
TTITLE16=Proseuxi
TTITLE17=Kampana
TTITLE18=Klapse simera kardia mou
TTITLE19=Data Track
EXTD=
EXTT0=
EXTT1=
EXTT2=
EXTT3=
EXTT4=
EXTT5=
EXTT6=
EXTT7=
EXTT8=
EXTT9=
EXTT10=
EXTT11=
EXTT12=
EXTT13=
EXTT14=
EXTT15=
EXTT16=
EXTT17=
EXTT18=
EXTT19=
PLAYORDER=
